#!OML:ASF X:\für Bonn\!DataBase\2005_08_11_Bastian_Final\c3d\Bastian.ASF
:FULLY-SPECIFIED
:DEGREES
33
root -1.16608 16.7839 -4.0344 169.972 -14.7996 -176.966
lowerback 10.4082 -1.88078 3.48655
upperback 8.36448 -3.2903 1.33322
thorax 2.82358 -1.96542 -0.333589
lowerneck -8.45985 -0.041371 -2.4386
upperneck -8.86184 -0.48181 3.16674
head -1.34261 -0.52043 1.40041
rclavicle 5.1684e-015 -1.80894e-014
rhumerus -43.1797 22.9306 -102.837
rradius 93.7243
rwrist 8.56336
rhand -16.9301 10.0936
rfingers 7.12502
rthumb 9.30283 -19.6812
lclavicle 5.1684e-015 -1.80894e-014
lhumerus -34.4643 -24.1097 99.6881
lradius 86.9789
lwrist 33.4272
lhand -2.69481 -18.2984
lfingers 7.12502
lthumb 23.0068 10.3486
rfemur -7.83708 -9.50342 26.2107
rtibia 48.2481
rfoot -205.976 -194.66
rtoes 3.92063
lfemur -1.90327 2.15711 -14.5522
ltibia 43.8512
lfoot -21.6024 -7.84289
ltoes -6.30178
34
root -1.137 16.7849 -4.03285 169.944 -14.5375 -177.01
lowerback 10.7073 -1.92172 3.45455
upperback 8.34691 -3.33899 1.25749
thorax 2.63812 -1.99568 -0.374412
lowerneck -8.60722 0.0273546 -2.46671
upperneck -8.97373 -0.406066 3.20823
head -1.35668 -0.491922 1.42032
rclavicle -2.38045e-014 -2.5842e-015
rhumerus -43.459 22.695 -102.647
rradius 94.064
rwrist 8.69975
rhand -16.9611 10.0782
rfingers 7.12502
rthumb 9.27289 -19.6979
lclavicle -2.38045e-014 -2.5842e-015
lhumerus -34.4243 -23.389 98.9447
lradius 86.2292
lwrist 33.5522
lhand -3.08873 -18.4609
lfingers 7.12502
lthumb 22.6288 10.2326
rfemur -7.79466 -9.53535 26.2473
rtibia 48.1587
rfoot -205.893 -194.407
rtoes 4.06989
lfemur -2.45076 2.44049 -14.3825
ltibia 44.9382
lfoot -21.0961 -7.92377
ltoes -6.91476
35
root -1.10801 16.794 -4.03174 169.891 -14.2598 -177.037
lowerback 11.0381 -1.95098 3.42784
upperback 8.32143 -3.37111 1.1965
thorax 2.42858 -2.01844 -0.402035
lowerneck -8.70199 0.0956613 -2.49682
upperneck -9.10162 -0.329723 3.24879
head -1.38463 -0.462786 1.44077
rclavicle 3.53837e-014 -2.64384e-014
rhumerus -43.8166 22.4732 -102.469
rradius 94.4546
rwrist 8.87361
rhand -17.0417 10.0606
rfingers 7.12502
rthumb 9.19511 -19.7189
lclavicle 3.53837e-014 -2.64384e-014
lhumerus -34.391 -22.6472 98.2069
lradius 85.3552
lwrist 33.586
lhand -3.60478 -18.6166
lfingers 7.12502
lthumb 22.1334 10.1365
rfemur -7.68187 -9.55499 26.2991
rtibia 47.9873
rfoot -205.786 -194.175
rtoes 4.12294
lfemur -3.10653 2.60133 -14.2239
ltibia 46.3096
lfoot -20.5485 -7.87049
ltoes -8.04298
36
root -1.07867 16.8001 -4.02954 169.807 -13.9693 -177.047
lowerback 11.3912 -1.96756 3.38868
upperback 8.32284 -3.39379 1.13672
thorax 2.23707 -2.0391 -0.42194
lowerneck -8.82639 0.175416 -2.42037
upperneck -9.25345 -0.253614 3.2203
head -1.41511 -0.438528 1.42063
rclavicle 3.13086e-015 5.36719e-015
rhumerus -44.0936 22.2782 -102.33
rradius 94.8047
rwrist 9.06316
rhand -17.126 10.0446
rfingers 7.12502
rthumb 9.11371 -19.7385
lclavicle 3.13086e-015 5.36719e-015
lhumerus -34.3175 -21.8377 97.4238
lradius 84.3845
lwrist 33.5335
lhand -4.18425 -18.6594
lfingers 7.12502
lthumb 21.577 10.1586
rfemur -7.53363 -9.5363 26.3693
rtibia 47.7885
rfoot -205.663 -193.911
rtoes 4.50561
lfemur -3.95094 2.70984 -14.0486
ltibia 48.0163
lfoot -19.8549 -7.81201
ltoes -9.36605
37
root -1.04979 16.8071 -4.02702 169.661 -13.6648 -177.06
lowerback 11.8244 -1.95931 3.35481
upperback 8.32573 -3.38323 1.07506
thorax 2.0053 -2.04482 -0.445774
lowerneck -8.9179 0.234446 -2.36
upperneck -9.39978 -0.200317 3.22921
head -1.44863 -0.424691 1.4151
rclavicle -6.60959e-015 -1.04362e-014
rhumerus -44.3809 22.0995 -102.23
rradius 95.1497
rwrist 9.22747
rhand -17.2958 10.0262
rfingers 7.12502
rthumb 8.94987 -19.764
lclavicle -6.60959e-015 -1.04362e-014
lhumerus -34.255 -21.0028 96.6409
lradius 83.2482
lwrist 33.3556
lhand -4.76123 -18.6993
lfingers 7.12502
lthumb 21.0228 10.1812
rfemur -7.29369 -9.53935 26.4229
rtibia 47.5552
rfoot -205.544 -193.629
rtoes 4.70343
lfemur -4.97539 2.78458 -13.883
ltibia 50.0546
lfoot -18.8916 -7.67754
ltoes -10.7904
38
root -1.02059 16.8146 -4.02386 169.456 -13.3097 -177.072
lowerback 12.3072 -1.93046 3.32387
upperback 8.36492 -3.35446 1.01401
thorax 1.78691 -2.04498 -0.471572
lowerneck -9.0403 0.303799 -2.29954
upperneck -9.54855 -0.13684 3.20944
head -1.47817 -0.40646 1.40042
rclavicle -1.57288e-014 6.75868e-015
rhumerus -44.553 21.9893 -102.106
rradius 95.4316
rwrist 9.37008
rhand -17.41 10.103
rfingers 7.12502
rthumb 8.83969 -19.6919
lclavicle -1.57288e-014 6.75868e-015
lhumerus -34.1275 -20.0834 95.8164
lradius 81.9776
lwrist 33.1485
lhand -5.29606 -18.7401
lfingers 7.12502
lthumb 20.5089 10.1966
rfemur -6.98265 -9.48603 26.4796
rtibia 47.3197
rfoot -205.417 -193.348
rtoes 5.05666
lfemur -6.20441 3.11415 -13.633
ltibia 52.4389
lfoot -17.5756 -7.69175
ltoes -13.101
39
root -0.992258 16.8172 -4.01979 169.156 -12.9314 -177.076
lowerback 12.8857 -1.88644 3.3188
upperback 8.41614 -3.30729 0.96133
thorax 1.53142 -2.03875 -0.501239
lowerneck -9.11422 0.350975 -2.35219
upperneck -9.70933 -0.0885669 3.27401
head -1.51979 -0.392575 1.43266
rclavicle 1.49337e-014 -6.16232e-015
rhumerus -44.74 21.924 -101.972
rradius 95.7272
rwrist 9.51764
rhand -17.549 10.2551
rfingers 7.12502
rthumb 8.70562 -19.5454
lclavicle 1.49337e-014 -6.16232e-015
lhumerus -34.0411 -19.1327 95.01
lradius 80.5867
lwrist 32.8564
lhand -5.78782 -18.7712
lfingers 7.12502
lthumb 20.0363 10.2158
rfemur -6.55661 -9.42948 26.5281
rtibia 47.0512
rfoot -205.265 -193.046
rtoes 5.29412
lfemur -7.55176 3.5907 -13.3244
ltibia 55.1359
lfoot -15.7468 -7.7528
ltoes -16.1521
40
root -0.963861 16.8202 -4.01583 168.756 -12.5277 -177.084
lowerback 13.5446 -1.81806 3.34715
upperback 8.50563 -3.23371 0.889063
thorax 1.27399 -2.02214 -0.571391
lowerneck -9.22094 0.377729 -2.4154
upperneck -9.85694 -0.0664851 3.35304
head -1.55124 -0.391637 1.47086
rclavicle -1.50579e-014 -3.67752e-015
rhumerus -44.8824 21.856 -101.826
rradius 96.0575
rwrist 9.64184
rhand -17.6097 10.4426
rfingers 7.12502
rthumb 8.64697 -19.3603
lclavicle -1.50579e-014 -3.67752e-015
lhumerus -33.9566 -18.2142 94.1717
lradius 79.0558
lwrist 32.5517
lhand -6.22889 -18.8523
lfingers 7.12502
lthumb 19.6123 10.1785
rfemur -5.98474 -9.3753 26.557
rtibia 46.7117
rfoot -205.092 -192.721
rtoes 5.66345
lfemur -9.00605 3.93016 -13.0847
ltibia 58.116
lfoot -13.5203 -7.39989
ltoes -19.8519
